{
	"asset" : {
		"generator" : "FME 2019.2.2.0",
		"version" : "2.0"
	},
	"materials" : [
		{
			"name" : "default_material",
			"pbrMetallicRoughness" : {
				"baseColorFactor" : [ 0.8, 0.8, 0.8, 1 ],
				"roughnessFactor" : 0.30000000000000004,
				"metallicFactor" : 0.5
			}
		}
	],
	"meshes" : [
		{
			"primitives" : [
				{
					"attributes" : {
						"POSITION" : 0
					},
					"indices" : 1,
					"material" : 0,
					"mode" : 4
				}
			]
		},
		{
			"primitives" : [
				{
					"attributes" : {
						"POSITION" : 2
					},
					"indices" : 3,
					"material" : 0,
					"mode" : 4
				}
			]
		},
		{
			"primitives" : [
				{
					"attributes" : {
						"POSITION" : 4
					},
					"indices" : 5,
					"material" : 0,
					"mode" : 4
				}
			]
		},
		{
			"primitives" : [
				{
					"attributes" : {
						"POSITION" : 6
					},
					"indices" : 7,
					"material" : 0,
					"mode" : 4
				}
			]
		},
		{
			"primitives" : [
				{
					"attributes" : {
						"POSITION" : 8
					},
					"indices" : 9,
					"material" : 0,
					"mode" : 4
				}
			]
		},
		{
			"primitives" : [
				{
					"attributes" : {
						"POSITION" : 10
					},
					"indices" : 11,
					"material" : 0,
					"mode" : 4
				}
			]
		},
		{
			"primitives" : [
				{
					"attributes" : {
						"POSITION" : 12
					},
					"indices" : 13,
					"material" : 0,
					"mode" : 4
				}
			]
		},
		{
			"primitives" : [
				{
					"attributes" : {
						"POSITION" : 14
					},
					"indices" : 15,
					"material" : 0,
					"mode" : 4
				}
			]
		},
		{
			"primitives" : [
				{
					"attributes" : {
						"POSITION" : 16
					},
					"indices" : 17,
					"material" : 0,
					"mode" : 4
				}
			]
		},
		{
			"primitives" : [
				{
					"attributes" : {
						"POSITION" : 18
					},
					"indices" : 19,
					"material" : 0,
					"mode" : 4
				}
			]
		},
		{
			"primitives" : [
				{
					"attributes" : {
						"POSITION" : 20
					},
					"indices" : 21,
					"material" : 0,
					"mode" : 4
				}
			]
		},
		{
			"primitives" : [
				{
					"attributes" : {
						"POSITION" : 22
					},
					"indices" : 23,
					"material" : 0,
					"mode" : 4
				}
			]
		},
		{
			"primitives" : [
				{
					"attributes" : {
						"POSITION" : 24
					},
					"indices" : 25,
					"material" : 0,
					"mode" : 4
				}
			]
		},
		{
			"primitives" : [
				{
					"attributes" : {
						"POSITION" : 26
					},
					"indices" : 27,
					"material" : 0,
					"mode" : 4
				}
			]
		},
		{
			"primitives" : [
				{
					"attributes" : {
						"POSITION" : 28
					},
					"indices" : 29,
					"material" : 0,
					"mode" : 4
				}
			]
		}
	],
	"nodes" : [
		{
			"name" : "IfcBuildingElementProxy",
			"matrix" : [ 1, 0, 0, 0, 0, 0, -1, 0, 0, 1, 0, 0, -1454.01491274987, 0, -314.52842384919, 1 ],
			"children" : [ 1, 32, 33, 34 ]
		},
		{
			"name" : "Body",
			"children" : [ 2, 4, 6, 8, 10, 12, 14, 16, 18, 20, 22, 24, 26, 28, 30 ]
		},
		{
			"children" : [ 3 ]
		},
		{
			"name" : "Body",
			"mesh" : 0
		},
		{
			"children" : [ 5 ]
		},
		{
			"name" : "Body",
			"mesh" : 1
		},
		{
			"children" : [ 7 ]
		},
		{
			"name" : "Body",
			"mesh" : 2
		},
		{
			"children" : [ 9 ]
		},
		{
			"name" : "Body",
			"mesh" : 3
		},
		{
			"children" : [ 11 ]
		},
		{
			"name" : "Body",
			"mesh" : 4
		},
		{
			"children" : [ 13 ]
		},
		{
			"name" : "Body",
			"mesh" : 5
		},
		{
			"children" : [ 15 ]
		},
		{
			"name" : "Body",
			"mesh" : 6
		},
		{
			"children" : [ 17 ]
		},
		{
			"name" : "Body",
			"mesh" : 7
		},
		{
			"children" : [ 19 ]
		},
		{
			"name" : "Body",
			"mesh" : 8
		},
		{
			"children" : [ 21 ]
		},
		{
			"name" : "Body",
			"mesh" : 9
		},
		{
			"children" : [ 23 ]
		},
		{
			"name" : "Body",
			"mesh" : 10
		},
		{
			"children" : [ 25 ]
		},
		{
			"name" : "Body",
			"mesh" : 11
		},
		{
			"children" : [ 27 ]
		},
		{
			"name" : "Body",
			"mesh" : 12
		},
		{
			"children" : [ 29 ]
		},
		{
			"name" : "Body",
			"mesh" : 13
		},
		{
			"children" : [ 31 ]
		},
		{
			"name" : "Body",
			"mesh" : 14
		},
		{
			"name" : "IfcPropertySet"
		},
		{
			"name" : "IfcPropertySet"
		},
		{
			"name" : "IfcPropertySet"
		},
		{
			"name" : "IfcBuildingElementProxy",
			"matrix" : [ 1, 0, 0, 0, 0, 0, -1, 0, 0, 1, 0, 0, 658.451077246455, 0, 1199.74757615041, 1 ],
			"children" : [ 36, 67, 68, 69 ]
		},
		{
			"name" : "Body",
			"children" : [ 37, 39, 41, 43, 45, 47, 49, 51, 53, 55, 57, 59, 61, 63, 65 ]
		},
		{
			"children" : [ 38 ]
		},
		{
			"name" : "Body",
			"mesh" : 0
		},
		{
			"children" : [ 40 ]
		},
		{
			"name" : "Body",
			"mesh" : 1
		},
		{
			"children" : [ 42 ]
		},
		{
			"name" : "Body",
			"mesh" : 2
		},
		{
			"children" : [ 44 ]
		},
		{
			"name" : "Body",
			"mesh" : 3
		},
		{
			"children" : [ 46 ]
		},
		{
			"name" : "Body",
			"mesh" : 4
		},
		{
			"children" : [ 48 ]
		},
		{
			"name" : "Body",
			"mesh" : 5
		},
		{
			"children" : [ 50 ]
		},
		{
			"name" : "Body",
			"mesh" : 6
		},
		{
			"children" : [ 52 ]
		},
		{
			"name" : "Body",
			"mesh" : 7
		},
		{
			"children" : [ 54 ]
		},
		{
			"name" : "Body",
			"mesh" : 8
		},
		{
			"children" : [ 56 ]
		},
		{
			"name" : "Body",
			"mesh" : 9
		},
		{
			"children" : [ 58 ]
		},
		{
			"name" : "Body",
			"mesh" : 10
		},
		{
			"children" : [ 60 ]
		},
		{
			"name" : "Body",
			"mesh" : 11
		},
		{
			"children" : [ 62 ]
		},
		{
			"name" : "Body",
			"mesh" : 12
		},
		{
			"children" : [ 64 ]
		},
		{
			"name" : "Body",
			"mesh" : 13
		},
		{
			"children" : [ 66 ]
		},
		{
			"name" : "Body",
			"mesh" : 14
		},
		{
			"name" : "IfcPropertySet"
		},
		{
			"name" : "IfcPropertySet"
		},
		{
			"name" : "IfcPropertySet"
		}
	],
	"scenes" : [
		{
			"nodes" : [ 0, 35 ]
		}
	],
	"scene" : 0,
	"accessors" : [
		{
			"bufferView" : 0,
			"byteOffset" : 0,
			"componentType" : 5126,
			"count" : 5,
			"type" : "VEC3",
			"min" : [ -1.2000000476837158, -1.1200000047683716, 0 ],
			"max" : [ 1.2000000476837158, 1.1200000047683716, 2.5 ]
		},
		{
			"bufferView" : 1,
			"byteOffset" : 0,
			"componentType" : 5121,
			"count" : 18,
			"type" : "SCALAR",
			"min" : [ 0 ],
			"max" : [ 4 ]
		},
		{
			"bufferView" : 2,
			"byteOffset" : 0,
			"componentType" : 5126,
			"count" : 5,
			"type" : "VEC3",
			"min" : [ -1.2000000476837158, -1.1200000047683716, -2.5 ],
			"max" : [ 1.2000000476837158, 1.1200000047683716, 0 ]
		},
		{
			"bufferView" : 3,
			"byteOffset" : 0,
			"componentType" : 5121,
			"count" : 18,
			"type" : "SCALAR",
			"min" : [ 0 ],
			"max" : [ 4 ]
		},
		{
			"bufferView" : 4,
			"byteOffset" : 0,
			"componentType" : 5126,
			"count" : 22,
			"type" : "VEC3",
			"min" : [ -0.7839508056640625, 1.8747119903564453, 0 ],
			"max" : [ -0.5108351707458496, 2.1760809421539307, 0.15000000596046448 ]
		},
		{
			"bufferView" : 5,
			"byteOffset" : 0,
			"componentType" : 5121,
			"count" : 120,
			"type" : "SCALAR",
			"min" : [ 0 ],
			"max" : [ 21 ]
		},
		{
			"bufferView" : 6,
			"byteOffset" : 0,
			"componentType" : 5126,
			"count" : 36,
			"type" : "VEC3",
			"min" : [ -0.36485961079597473, 1.7899519205093384, 0 ],
			"max" : [ -0.26126405596733093, 2.1760809421539307, 0.15000000596046448 ]
		},
		{
			"bufferView" : 7,
			"byteOffset" : 0,
			"componentType" : 5121,
			"count" : 204,
			"type" : "SCALAR",
			"min" : [ 0 ],
			"max" : [ 35 ]
		},
		{
			"bufferView" : 8,
			"byteOffset" : 0,
			"componentType" : 5126,
			"count" : 20,
			"type" : "VEC3",
			"min" : [ -0.21888403594493866, 1.8747119903564453, 0 ],
			"max" : [ 0.01656043715775013, 2.1760809421539307, 0.15000000596046448 ]
		},
		{
			"bufferView" : 9,
			"byteOffset" : 0,
			"componentType" : 5121,
			"count" : 108,
			"type" : "SCALAR",
			"min" : [ 0 ],
			"max" : [ 19 ]
		},
		{
			"bufferView" : 10,
			"byteOffset" : 0,
			"componentType" : 5126,
			"count" : 8,
			"type" : "VEC3",
			"min" : [ 0.05894044414162636, 1.964180827140808, 0 ],
			"max" : [ 0.17666268348693848, 2.001852035522461, 0.15000000596046448 ]
		},
		{
			"bufferView" : 11,
			"byteOffset" : 0,
			"componentType" : 5121,
			"count" : 36,
			"type" : "SCALAR",
			"min" : [ 0 ],
			"max" : [ 7 ]
		},
		{
			"bufferView" : 12,
			"byteOffset" : 0,
			"componentType" : 5126,
			"count" : 134,
			"type" : "VEC3",
			"min" : [ 0.20962491631507874, 1.8700031042099, 0 ],
			"max" : [ 0.4450693726539612, 2.1807897090911865, 0.15000000596046448 ]
		},
		{
			"bufferView" : 13,
			"byteOffset" : 0,
			"componentType" : 5121,
			"count" : 792,
			"type" : "SCALAR",
			"min" : [ 0 ],
			"max" : [ 133 ]
		},
		{
			"bufferView" : 14,
			"byteOffset" : 0,
			"componentType" : 5126,
			"count" : 38,
			"type" : "VEC3",
			"min" : [ 0.47803160548210144, 1.7899519205093384, 0 ],
			"max" : [ 0.5816271901130676, 2.1760809421539307, 0.15000000596046448 ]
		},
		{
			"bufferView" : 15,
			"byteOffset" : 0,
			"componentType" : 5121,
			"count" : 216,
			"type" : "SCALAR",
			"min" : [ 0 ],
			"max" : [ 37 ]
		},
		{
			"bufferView" : 16,
			"byteOffset" : 0,
			"componentType" : 5126,
			"count" : 32,
			"type" : "VEC3",
			"min" : [ 1.8960492610931396, -0.14528803527355194, 0 ],
			"max" : [ 2.1738736629486084, 0.15608090162277222, 0.15000000596046448 ]
		},
		{
			"bufferView" : 17,
			"byteOffset" : 0,
			"componentType" : 5121,
			"count" : 180,
			"type" : "SCALAR",
			"min" : [ 0 ],
			"max" : [ 31 ]
		},
		{
			"bufferView" : 18,
			"byteOffset" : 0,
			"componentType" : 5126,
			"count" : 36,
			"type" : "VEC3",
			"min" : [ 2.3245582580566406, -0.2300480455160141, 0 ],
			"max" : [ 2.4281537532806396, 0.15608090162277222, 0.15000000596046448 ]
		},
		{
			"bufferView" : 19,
			"byteOffset" : 0,
			"componentType" : 5121,
			"count" : 204,
			"type" : "SCALAR",
			"min" : [ 0 ],
			"max" : [ 35 ]
		},
		{
			"bufferView" : 20,
			"byteOffset" : 0,
			"componentType" : 5126,
			"count" : 40,
			"type" : "VEC3",
			"min" : [ 2.4422802925109863, -0.14528803527355194, 0 ],
			"max" : [ 2.8519537448883057, 0.15608090162277222, 0.15000000596046448 ]
		},
		{
			"bufferView" : 21,
			"byteOffset" : 0,
			"componentType" : 5121,
			"count" : 228,
			"type" : "SCALAR",
			"min" : [ 0 ],
			"max" : [ 39 ]
		},
		{
			"bufferView" : 22,
			"byteOffset" : 0,
			"componentType" : 5126,
			"count" : 8,
			"type" : "VEC3",
			"min" : [ 2.8660805225372314, -0.055819135159254074, 0 ],
			"max" : [ 2.9838027954101562, -0.018148016184568405, 0.15000000596046448 ]
		},
		{
			"bufferView" : 23,
			"byteOffset" : 0,
			"componentType" : 5121,
			"count" : 36,
			"type" : "SCALAR",
			"min" : [ 0 ],
			"max" : [ 7 ]
		},
		{
			"bufferView" : 24,
			"byteOffset" : 0,
			"componentType" : 5126,
			"count" : 112,
			"type" : "VEC3",
			"min" : [ 3.0167648792266846, -0.14999692142009735, 0 ],
			"max" : [ 3.3040072917938232, 0.16078978776931763, 0.15000000596046448 ]
		},
		{
			"bufferView" : 25,
			"byteOffset" : 0,
			"componentType" : 5121,
			"count" : 672,
			"type" : "SCALAR",
			"min" : [ 0 ],
			"max" : [ 111 ]
		},
		{
			"bufferView" : 26,
			"byteOffset" : 0,
			"componentType" : 5126,
			"count" : 38,
			"type" : "VEC3",
			"min" : [ 3.3322606086730957, -0.2300480455160141, 0 ],
			"max" : [ 3.4358561038970947, 0.15608090162277222, 0.15000000596046448 ]
		},
		{
			"bufferView" : 27,
			"byteOffset" : 0,
			"componentType" : 5121,
			"count" : 216,
			"type" : "SCALAR",
			"min" : [ 0 ],
			"max" : [ 37 ]
		},
		{
			"bufferView" : 28,
			"byteOffset" : 0,
			"componentType" : 5126,
			"count" : 10,
			"type" : "VEC3",
			"min" : [ 0, 0, 0 ],
			"max" : [ 1.7000000476837158, 1.6561046838760376, 0.10000000149011612 ]
		},
		{
			"bufferView" : 29,
			"byteOffset" : 0,
			"componentType" : 5121,
			"count" : 48,
			"type" : "SCALAR",
			"min" : [ 0 ],
			"max" : [ 9 ]
		}
	],
	"bufferViews" : [
		{
			"buffer" : 0,
			"byteOffset" : 0,
			"byteLength" : 60,
			"target" : 34962
		},
		{
			"buffer" : 0,
			"byteOffset" : 60,
			"byteLength" : 18,
			"target" : 34963
		},
		{
			"buffer" : 0,
			"byteOffset" : 80,
			"byteLength" : 60,
			"target" : 34962
		},
		{
			"buffer" : 0,
			"byteOffset" : 140,
			"byteLength" : 18,
			"target" : 34963
		},
		{
			"buffer" : 0,
			"byteOffset" : 160,
			"byteLength" : 264,
			"target" : 34962
		},
		{
			"buffer" : 0,
			"byteOffset" : 424,
			"byteLength" : 120,
			"target" : 34963
		},
		{
			"buffer" : 0,
			"byteOffset" : 544,
			"byteLength" : 432,
			"target" : 34962
		},
		{
			"buffer" : 0,
			"byteOffset" : 976,
			"byteLength" : 204,
			"target" : 34963
		},
		{
			"buffer" : 0,
			"byteOffset" : 1180,
			"byteLength" : 240,
			"target" : 34962
		},
		{
			"buffer" : 0,
			"byteOffset" : 1420,
			"byteLength" : 108,
			"target" : 34963
		},
		{
			"buffer" : 0,
			"byteOffset" : 1528,
			"byteLength" : 96,
			"target" : 34962
		},
		{
			"buffer" : 0,
			"byteOffset" : 1624,
			"byteLength" : 36,
			"target" : 34963
		},
		{
			"buffer" : 0,
			"byteOffset" : 1660,
			"byteLength" : 1608,
			"target" : 34962
		},
		{
			"buffer" : 0,
			"byteOffset" : 3268,
			"byteLength" : 792,
			"target" : 34963
		},
		{
			"buffer" : 0,
			"byteOffset" : 4060,
			"byteLength" : 456,
			"target" : 34962
		},
		{
			"buffer" : 0,
			"byteOffset" : 4516,
			"byteLength" : 216,
			"target" : 34963
		},
		{
			"buffer" : 0,
			"byteOffset" : 4732,
			"byteLength" : 384,
			"target" : 34962
		},
		{
			"buffer" : 0,
			"byteOffset" : 5116,
			"byteLength" : 180,
			"target" : 34963
		},
		{
			"buffer" : 0,
			"byteOffset" : 5296,
			"byteLength" : 432,
			"target" : 34962
		},
		{
			"buffer" : 0,
			"byteOffset" : 5728,
			"byteLength" : 204,
			"target" : 34963
		},
		{
			"buffer" : 0,
			"byteOffset" : 5932,
			"byteLength" : 480,
			"target" : 34962
		},
		{
			"buffer" : 0,
			"byteOffset" : 6412,
			"byteLength" : 228,
			"target" : 34963
		},
		{
			"buffer" : 0,
			"byteOffset" : 6640,
			"byteLength" : 96,
			"target" : 34962
		},
		{
			"buffer" : 0,
			"byteOffset" : 6736,
			"byteLength" : 36,
			"target" : 34963
		},
		{
			"buffer" : 0,
			"byteOffset" : 6772,
			"byteLength" : 1344,
			"target" : 34962
		},
		{
			"buffer" : 0,
			"byteOffset" : 8116,
			"byteLength" : 672,
			"target" : 34963
		},
		{
			"buffer" : 0,
			"byteOffset" : 8788,
			"byteLength" : 456,
			"target" : 34962
		},
		{
			"buffer" : 0,
			"byteOffset" : 9244,
			"byteLength" : 216,
			"target" : 34963
		},
		{
			"buffer" : 0,
			"byteOffset" : 9460,
			"byteLength" : 120,
			"target" : 34962
		},
		{
			"buffer" : 0,
			"byteOffset" : 9580,
			"byteLength" : 48,
			"target" : 34963
		}
	],
	"buffers" : [
		{
			"uri" : "IfcBuildingElementProxy.bin",
			"byteLength" : 9628
		}
	]
}